PathFileType	4	(X/Y/Z)	D:\TRACE\spotREDO_2-26-24\spot_Both_Motion_1_9-platform.trc
DataRate	CameraRate	NumFrames	NumMarkers	Units	OrigDataRate	OrigDataStartFrame	OrigNumFrames
100.00	100.00	      67	5	mm	100.00	1751	      7000
Frame#	Time	Left_Front			Right_Front			Left_Aft			Right_Aft			Post			
		X1	Y1	Z1	X2	Y2	Z2	X3	Y3	Z3	X4	Y4	Z4	X5	Y5	Z5	

1751	17.500	-647.07642	-20.10128	-579.60846	767.80157	-8.64012	-494.93915	-718.70886	20.71560	638.31787	851.69019	28.78387	642.52124	61.94452	595.90594	-1003.24847	
1752	17.510	-647.35876	-19.87539	-579.56622	767.69110	-8.55134	-494.78235	-718.79578	20.74886	638.57068	851.38251	28.59129	642.55585	61.68866	596.28693	-1003.19720	
1753	17.520	-647.56598	-19.65188	-579.43921	767.47064	-8.08843	-494.52545	-719.22339	20.09520	638.47729	851.14899	28.59177	642.65918	61.93997	596.68341	-1002.70813	
1754	17.530	-647.86298	-19.31421	-579.41931	767.14496	-7.96733	-494.48068	-719.61633	19.97984	638.55157	850.66040	28.40077	642.71472	61.40634	597.22546	-1002.50885	
1755	17.540	-648.11786	-19.09346	-579.37158	766.82898	-7.79113	-494.45648	-719.85590	19.78820	638.69031	850.35504	28.01800	642.82343	61.31773	597.59595	-1002.31299	
1756	17.550	-648.26349	-18.95343	-579.37305	766.40820	-7.43076	-494.66180	-720.05774	19.52731	638.73853	850.25977	27.71072	642.76727	61.01180	597.82129	-1002.22137	
1757	17.560	-648.41058	-18.80427	-579.28448	766.19702	-7.34074	-494.59033	-720.26923	19.24247	638.84656	850.15387	27.36010	642.77637	60.59944	598.35895	-1001.69458	
1758	17.570	-648.79346	-18.57632	-579.26892	765.76068	-6.90237	-494.72794	-720.66840	19.00134	638.92877	849.84094	26.92230	642.90967	60.21074	598.99628	-1001.23987	
1759	17.580	-649.15369	-18.11897	-579.15131	765.38855	-6.61855	-494.63663	-721.10681	18.87473	638.97620	849.49066	26.79310	643.07758	59.80426	599.36548	-1000.70807	
1760	17.590	-649.60522	-17.69789	-579.09235	765.14142	-6.33775	-494.48959	-721.36871	18.60708	639.04803	849.12726	26.70739	643.00281	59.51764	599.84875	-1000.27887	
1761	17.600	-650.13495	-17.48935	-578.96783	764.94110	-6.12042	-494.25705	-721.45184	18.35536	639.17078	848.72443	26.29413	643.27533	59.01933	600.27509	-999.75757	
1762	17.610	-650.40381	-17.44555	-578.64563	764.67108	-6.24585	-494.19174	-721.97491	17.86925	639.12628	848.27032	25.83603	643.24805	58.53871	600.86731	-999.35883	
1763	17.620	-651.00079	-16.90756	-578.83124	764.09943	-5.98106	-494.04437	-722.42816	17.40129	639.19305	847.84888	25.56627	643.28400	58.21959	601.26257	-999.08252	
1764	17.630	-651.16193	-16.71824	-578.81671	763.60950	-5.56146	-494.07379	-722.97583	17.27146	639.26794	847.61072	25.38515	643.48285	57.90171	601.84949	-998.91321	
1765	17.640	-651.50592	-16.30604	-578.70129	763.46295	-5.27456	-493.76102	-723.23517	17.05731	639.41071	847.09955	25.14100	643.67780	57.86310	602.42621	-998.40826	
1766	17.650	-652.08215	-15.86963	-578.67456	762.96558	-5.24579	-493.72845	-723.70129	16.89250	639.61053	846.59229	24.68623	643.71350	56.94590	602.96265	-998.34924	
1767	17.660	-652.47888	-15.76998	-578.69037	762.32263	-5.09450	-493.87051	-724.33899	16.37817	639.77655	846.15894	24.34518	643.66260	56.37527	603.33118	-998.04340	
1768	17.670	-653.13544	-15.53478	-578.60834	761.77460	-4.81599	-493.77249	-724.62018	16.10695	639.82166	845.72388	23.97056	643.85803	56.09740	603.59906	-997.84082	
1769	17.680	-653.51813	-15.22780	-578.39081	761.29480	-4.44503	-493.64310	-725.23975	15.90365	639.86792	845.24835	23.76475	644.07135	55.57736	604.08942	-997.40106	
1770	17.690	-654.13928	-14.69463	-578.39136	760.94415	-4.22192	-493.49670	-725.71094	15.59303	639.93945	844.73584	23.67050	644.22919	55.67464	604.80615	-996.69086	
1771	17.700	-654.37152	-14.49535	-578.29510	760.47192	-3.92941	-493.55496	-726.24609	15.43721	639.95941	844.16626	23.55802	644.29724	55.23494	605.34686	-996.05762	
1772	17.710	-654.73322	-14.44017	-578.32684	759.92383	-3.62891	-493.55444	-726.70947	15.24004	640.11316	843.71088	23.05486	644.21649	54.69351	605.63580	-995.92590	
1773	17.720	-655.50037	-14.29210	-578.24652	759.11768	-3.44861	-493.71954	-727.37634	14.63612	639.93567	843.36157	22.51058	644.22943	53.71825	606.08405	-995.52454	
1774	17.730	-656.27124	-13.92477	-578.22668	758.61908	-3.26738	-493.49719	-727.72382	14.25371	639.99731	842.96423	21.90214	644.28839	52.98888	606.60950	-995.13306	
1775	17.740	-656.77173	-13.58447	-578.16376	758.34192	-3.06172	-493.33725	-728.11389	14.02229	640.17737	842.03247	21.80880	644.56476	52.83951	607.02185	-994.68005	
1776	17.750	-657.41919	-12.78386	-578.23883	757.81787	-2.73426	-493.09183	-728.68097	13.80461	640.33228	841.48962	21.83762	644.59912	51.99979	607.61157	-994.37164	
1777	17.760	-657.84412	-12.51624	-578.11053	757.23035	-2.29632	-493.11017	-729.43506	13.55048	640.37787	841.03375	21.52451	644.52405	51.41889	608.09174	-994.15802	
1778	17.770	-658.40924	-12.27009	-577.92120	756.24286	-2.28332	-493.16312	-729.92963	13.09932	640.57880	840.27936	21.03906	644.67810	50.61487	608.75647	-993.76703	
1779	17.780	-659.24786	-11.84488	-577.86707	755.62024	-1.94193	-493.15295	-730.54279	12.63001	640.71362	839.57233	20.43269	644.51147	50.27623	609.07330	-993.63287	
1780	17.790	-659.87073	-11.57954	-577.65375	755.25146	-1.59973	-493.12677	-731.03711	12.30612	640.83075	839.05768	20.30521	644.79608	49.54499	609.74152	-993.29926	
1781	17.800	-660.31030	-11.45250	-577.46735	754.77753	-1.44300	-492.90082	-731.71234	11.97922	640.94696	838.46643	20.07291	644.78503	48.97411	610.36816	-992.69409	
1782	17.810	-661.02789	-10.97856	-577.30127	754.03802	-1.00303	-492.61420	-732.56409	11.81119	640.94995	837.68597	19.70207	644.95422	47.86712	611.08154	-992.31531	
1783	17.820	-661.44427	-10.78861	-577.34778	753.26703	-0.67090	-492.59097	-733.09576	11.51972	641.06342	837.11121	19.45327	645.11603	47.22730	611.32550	-991.79675	
1784	17.830	-662.48627	-10.56406	-577.35016	752.58923	-0.43233	-492.67545	-733.78003	11.16381	641.10675	836.29108	18.98865	645.22620	46.75362	611.87274	-991.24231	
1785	17.840	-663.01862	-10.31094	-577.38116	752.23486	-0.41388	-492.40472	-734.49280	10.77327	641.05194	835.75818	18.65588	645.38916	46.29358	612.45349	-990.97760	
1786	17.850	-663.61334	-9.97097	-577.30682	751.23071	0.01723	-492.47876	-735.20349	10.53156	641.36810	835.11444	18.36511	645.36853	45.51204	612.91907	-990.49908	
1787	17.860	-664.54492	-9.43958	-577.17902	750.68164	0.42017	-492.39603	-735.88666	10.15301	641.48602	834.32831	18.08765	645.48602	45.48333	613.33685	-990.04822	
1788	17.870	-665.34418	-9.03592	-576.99396	749.95062	0.50523	-492.29230	-736.40454	9.98037	641.53552	833.85223	17.85065	645.67816	44.06446	614.18365	-989.69275	
1789	17.880	-666.06659	-8.86960	-576.98523	748.92395	0.99965	-492.30801	-737.22046	9.65595	641.57898	832.97729	17.37432	645.89429	43.39885	614.71014	-989.15448	
1790	17.890	-666.57788	-8.48518	-576.75085	748.45209	0.95254	-492.05612	-738.09473	9.34026	641.64886	832.18359	16.99180	645.80408	43.15803	615.12988	-988.53888	
1791	17.900	-667.49329	-8.32694	-576.69421	747.79767	1.29430	-492.11630	-738.87384	8.98922	641.61621	831.43018	16.55451	645.76434	42.54961	615.56891	-988.28925	
1792	17.910	-668.13110	-8.05296	-576.76801	746.66687	1.69469	-492.14685	-739.52271	8.63111	641.79962	830.76056	16.21461	645.87720	41.44043	616.31348	-988.13409	
1793	17.920	-668.87408	-7.66284	-576.75769	745.93011	1.92027	-491.85141	-740.22064	8.32515	641.75653	829.99066	15.90086	645.95813	40.66250	616.71124	-987.72083	
1794	17.930	-669.59015	-7.32780	-576.66357	745.54266	2.14066	-491.70816	-740.98346	7.77539	642.00958	829.39838	15.67906	646.02319	39.92663	617.26910	-987.33551	
1795	17.940	-670.27606	-6.95709	-576.64972	744.92950	2.55591	-491.48758	-741.80188	7.24564	642.09924	828.57153	15.30645	646.13776	39.22127	617.91760	-986.89142	
1796	17.950	-671.18170	-6.60177	-576.46582	743.67645	2.65983	-491.64822	-742.53229	6.91905	642.17310	827.72363	14.86111	646.16364	38.44715	618.41803	-986.39948	
1797	17.960	-672.05670	-6.24631	-576.24792	742.99573	2.98091	-491.56320	-743.19977	6.64033	642.25671	826.80426	14.48285	646.23828	37.50758	619.04193	-985.88171	
1798	17.970	-672.88049	-5.83872	-576.16266	742.12299	3.09113	-491.65372	-744.33295	6.26787	642.36652	826.00665	14.17706	646.43591	36.56262	619.62280	-985.34167	
1799	17.980	-673.60834	-5.59616	-576.06580	741.10950	3.86518	-491.73117	-745.07739	5.99583	642.43768	825.02240	13.77378	646.54688	35.70630	620.24103	-984.91016	
1800	17.990	-674.47876	-5.44619	-576.11371	740.29663	3.89577	-491.64301	-745.75562	5.71820	642.57758	824.36389	13.64282	646.57349	34.97089	620.79071	-984.27301	
1801	18.000	-675.33478	-5.14626	-575.91315	739.38831	4.20751	-491.64719	-746.56067	5.32116	642.64917	823.44116	13.23479	646.73779	34.26277	621.42804	-983.54639	
1802	18.010	-676.32001	-4.63138	-575.83875	738.80975	4.32337	-491.19470	-747.51892	5.00782	642.82300	822.58331	12.69874	646.81757	33.55332	622.00696	-983.08093	
1803	18.020	-676.90710	-4.41056	-575.93866	737.96515	4.69415	-491.20490	-748.24695	4.70901	642.86548	821.78607	12.33850	646.92401	32.96437	622.33594	-982.59344	
1804	18.030	-677.72388	-3.93782	-575.83014	736.85553	5.26409	-491.30032	-749.14691	4.40080	643.01654	821.04193	12.04739	647.12567	31.72244	623.01599	-982.55920	
1805	18.040	-678.66992	-3.44666	-575.79694	736.06989	5.43891	-491.02805	-750.13531	3.95492	643.04327	820.26038	11.69472	647.18390	30.81717	623.58221	-982.21289	
1806	18.050	-679.52795	-3.34067	-575.68408	735.39630	5.61295	-490.92316	-750.94049	3.50355	643.00549	819.26630	11.38280	647.23676	29.91406	624.13483	-981.94708	
1807	18.060	-680.47156	-2.87467	-575.53894	734.19604	6.14905	-490.95663	-751.75574	3.07632	643.12567	818.28064	10.85605	647.26227	29.12886	624.73755	-981.68481	
1808	18.070	-681.24438	-2.62633	-575.41058	733.34546	6.37929	-490.97073	-752.62317	2.72881	643.26660	817.64777	10.14985	647.25342	28.07945	625.45355	-981.19879	
1809	18.080	-682.10138	-2.29570	-575.39954	732.84894	6.35950	-490.64850	-753.59668	2.27758	643.50983	816.64880	10.11270	647.31665	27.09227	626.03528	-980.67554	
1810	18.090	-683.12030	-1.87306	-575.29254	731.72186	6.98370	-490.58237	-754.38562	2.06012	643.58478	816.07574	9.87575	647.69739	26.77250	626.52533	-980.03540	
1811	18.100	-683.65503	-1.88996	-575.11377	730.78552	7.14184	-490.48499	-755.40540	1.41599	643.66779	814.75690	9.50018	647.67303	25.41305	627.25220	-979.28387	
1812	18.110	-685.06921	-1.29947	-575.16418	729.99091	7.68490	-490.47037	-756.23529	1.15665	643.82104	814.16803	8.93619	647.75464	24.60741	627.75427	-978.75671	
1813	18.120	-685.70300	-0.95591	-575.00000	729.02521	7.87072	-490.34000	-757.36011	0.72675	643.77228	812.99249	8.58964	647.93127	23.65471	628.33374	-978.10779	
1814	18.130	-686.31213	-0.72092	-574.91132	728.07782	8.14745	-490.22604	-758.10419	0.41798	643.83185	812.01703	8.15759	647.97449	22.72036	629.17316	-977.57733	
1815	18.140	-687.65179	-0.02407	-574.59442	727.04346	8.64476	-490.27783	-759.08521	0.13316	643.93298	811.18683	7.75167	648.12598	21.84617	629.80206	-977.01031	
1816	18.150	-688.81995	0.64153	-574.44196	726.12640	8.73731	-490.05402	-760.04156	-0.22520	644.12024	810.20728	7.47781	648.31598	20.86436	630.36951	-976.55725	
1817	18.160	-689.55768	0.67926	-574.42053	725.40186	8.86693	-489.90466	-760.79474	-0.38738	644.20288	809.20691	6.96659	648.35699	19.87718	631.30353	-976.06683	
